<svg id="visual" viewBox="0 0 900 600" width="900" height="600" xmlns="http://www.w3.org/2000/svg" xmlns:xlink="http://www.w3.org/1999/xlink" version="1.1"><rect x="0" y="0" width="900" height="600" fill="#fff"></rect><path d="M0 402L21.5 394.3C43 386.7 86 371.3 128.8 367.3C171.7 363.3 214.3 370.7 257.2 384.8C300 399 343 420 385.8 424.8C428.7 429.7 471.3 418.3 514.2 416.7C557 415 600 423 642.8 420.5C685.7 418 728.3 405 771.2 404C814 403 857 414 878.5 419.5L900 425L900 601L878.5 601C857 601 814 601 771.2 601C728.3 601 685.7 601 642.8 601C600 601 557 601 514.2 601C471.3 601 428.7 601 385.8 601C343 601 300 601 257.2 601C214.3 601 171.7 601 128.8 601C86 601 43 601 21.5 601L0 601Z" fill="#23a5d9"></path><path d="M0 418L21.5 423.7C43 429.3 86 440.7 128.8 441C171.7 441.3 214.3 430.7 257.2 434.7C300 438.7 343 457.3 385.8 467.2C428.7 477 471.3 478 514.2 473.3C557 468.7 600 458.3 642.8 456.3C685.7 454.3 728.3 460.7 771.2 452.3C814 444 857 421 878.5 409.5L900 398L900 601L878.5 601C857 601 814 601 771.2 601C728.3 601 685.7 601 642.8 601C600 601 557 601 514.2 601C471.3 601 428.7 601 385.8 601C343 601 300 601 257.2 601C214.3 601 171.7 601 128.8 601C86 601 43 601 21.5 601L0 601Z" fill="#1893cb"></path><path d="M0 439L21.5 443C43 447 86 455 128.8 464.8C171.7 474.7 214.3 486.3 257.2 491C300 495.7 343 493.3 385.8 492.8C428.7 492.3 471.3 493.7 514.2 492.5C557 491.3 600 487.7 642.8 483.8C685.7 480 728.3 476 771.2 479.8C814 483.7 857 495.3 878.5 501.2L900 507L900 601L878.5 601C857 601 814 601 771.2 601C728.3 601 685.7 601 642.8 601C600 601 557 601 514.2 601C471.3 601 428.7 601 385.8 601C343 601 300 601 257.2 601C214.3 601 171.7 601 128.8 601C86 601 43 601 21.5 601L0 601Z" fill="#1282bd"></path><path d="M0 498L21.5 499.5C43 501 86 504 128.8 505.2C171.7 506.3 214.3 505.7 257.2 503C300 500.3 343 495.7 385.8 492.2C428.7 488.7 471.3 486.3 514.2 491.7C557 497 600 510 642.8 515.2C685.7 520.3 728.3 517.7 771.2 514.3C814 511 857 507 878.5 505L900 503L900 601L878.5 601C857 601 814 601 771.2 601C728.3 601 685.7 601 642.8 601C600 601 557 601 514.2 601C471.3 601 428.7 601 385.8 601C343 601 300 601 257.2 601C214.3 601 171.7 601 128.8 601C86 601 43 601 21.5 601L0 601Z" fill="#1171ae"></path><path d="M0 530L21.5 536.5C43 543 86 556 128.8 560.2C171.7 564.3 214.3 559.7 257.2 558.3C300 557 343 559 385.8 561.3C428.7 563.7 471.3 566.3 514.2 564C557 561.7 600 554.3 642.8 551.7C685.7 549 728.3 551 771.2 549.2C814 547.3 857 541.7 878.5 538.8L900 536L900 601L878.5 601C857 601 814 601 771.2 601C728.3 601 685.7 601 642.8 601C600 601 557 601 514.2 601C471.3 601 428.7 601 385.8 601C343 601 300 601 257.2 601C214.3 601 171.7 601 128.8 601C86 601 43 601 21.5 601L0 601Z" fill="#12619e"></path></svg>