<svg xmlns="http://www.w3.org/2000/svg" viewBox="0 0 50.07 40.73"><defs><style>.cls-1{fill:#a4C636;}</style></defs><g id="Layer_2" data-name="Layer 2"><g id="Capa_1" data-name="Capa 1"><polygon class="cls-1" points="0 35.8 13.89 13.46 16.78 17.95 5.68 35.8 0 35.8"/><polygon class="cls-1" points="17.81 8.13 22.02 1.35 30.86 15.13 27.98 19.77 22.02 10.48 20.69 12.63 17.81 8.13"/><polygon class="cls-1" points="6.14 0 26.85 32.29 46.93 0 41.25 0 26.85 23.16 12 0 6.14 0"/><polygon class="cls-1" points="9.17 33.19 22.42 12.53 25.35 17.1 15.03 33.19 9.17 33.19"/><polygon class="cls-1" points="26.54 7.02 29.46 11.58 29.99 10.76 44.39 33.92 50.07 33.92 29.99 1.63 26.54 7.02"/><polygon class="cls-1" points="27.24 33.04 30.13 28.4 38.03 40.73 32.17 40.73 27.24 33.04"/><polygon class="cls-1" points="31.16 26.47 34.04 21.83 41.95 34.16 36.09 34.16 31.16 26.47"/></g></g></svg>