<?xml version="1.0" encoding="utf-8"?>
<!-- Generator: Adobe Illustrator 25.3.1, SVG Export Plug-In . SVG Version: 6.00 Build 0)  -->
<svg version="1.1" id="Capa_1" xmlns="http://www.w3.org/2000/svg" xmlns:xlink="http://www.w3.org/1999/xlink" x="0px" y="0px"
	 viewBox="0 0 929.14 336" style="enable-background:new 0 0 929.14 336;" xml:space="preserve">
<style type="text/css">
	.st0{fill:#A4C636;}
	.st1{fill:#215BA6;}
	.st2{fill:#23A5D9;}
	.st3{fill:#FFFFFF;}
	.st4{font-family:'Centaur';}
	.st5{font-size:61.7985px;}
</style>
<g>
	<path class="st0" d="M363.68,56.18c0,0-59.2,2.8-66.66,66.66C297.02,122.84,358.55,125.17,363.68,56.18z"/>
	<path class="st0" d="M344.1,20.99c0,0-23.42,4.55-23.08,37.76C321.03,58.75,349.35,52.8,344.1,20.99z"/>
	<path class="st0" d="M342.71,117.83c0,0,17.83-25.52,48.95-10.84C391.65,106.99,372.07,134.61,342.71,117.83z"/>
	<path class="st0" d="M305.99,132.52c0,0,36.36-22.38,66.78,14.68C372.77,147.2,333.96,169.23,305.99,132.52z"/>
	<path class="st0" d="M224.65,56.18c0,0,59.2,2.8,66.66,66.66C291.31,122.84,229.78,125.17,224.65,56.18z"/>
	<path class="st0" d="M244.23,20.99c0,0,23.42,4.55,23.07,37.76C267.3,58.75,238.98,52.8,244.23,20.99z"/>
	<path class="st0" d="M245.63,117.83c0,0-17.83-25.52-48.95-10.84C196.68,106.99,216.26,134.61,245.63,117.83z"/>
	<path class="st0" d="M282.34,132.52c0,0-36.36-22.38-66.78,14.68C215.56,147.2,254.37,169.23,282.34,132.52z"/>
	<path class="st0" d="M294.81,12.51c0,0,35.31,39.59,0,80.85C294.81,93.36,259.96,59.74,294.81,12.51z"/>
	<path class="st1" d="M127.34,54.58L105.43,64.6l14.92,29.84L46.69,255.73c0,0-25.35,2.8-29.92,7.93h39.25l27.97-66.2h82.04
		l24.71,55.01h27.5C218.24,252.47,151.12,123.34,127.34,54.58z M85.38,192.3l38.23-86.24l38.68,86.24H85.38z"/>
	<path class="st1" d="M568.33,276.21c-1.27-0.34-2.68-1.51-3.88-2.06c-4-1.85-8.23-3.21-12.48-4.33
		c-17.78-4.66-36.64-4.99-54.87-3.68c-18.39,1.32-36.58,4.59-54.48,8.93c-13.25,3.21-26.22,7.55-39.59,10.27
		c-23.68,4.82-49.27,6.24-72.58-1.12c-10.75-3.4-20.85-8.81-29.22-16.4c0,0,13.05-0.47,18.65-5.13c0,0-39.39,6.99-61.88-16.78
		c-18.73-19.8-28.29-56.02-0.39-72.7c13.7-8.19,31.64-8.88,46.42-3.28c0,0,71.32,27.04,38.69,82.98c0.46-0.79,2.61-1.63,3.35-2.14
		c2.81-1.92,5.49-4.04,8.02-6.33c7.07-6.37,13.22-14.28,15.91-23.53c8.6-29.49-20.82-51.55-44.72-60.53
		c-29.51-11.09-64.51-8.18-89.76,11.65c-11.18,8.78-19.22,22.23-19.67,36.65c-0.32,10.12,3.51,20.05,9.32,28.23
		c13.52,19.03,37.23,27.14,59.46,30.15c2.22,0.3,4.46,0.55,6.69,0.77c0,0-2.8,4.89-17.13,3.15c0,0-29.37-1.4-32.51,12.94
		c0.14-0.64,4.15-1.76,4.68-1.95c3.87-1.42,7.89-2.5,11.97-3.11c14.26-2.15,29.15,4.93,42.74,8.59c14.17,3.82,28.47,7.26,42.91,9.91
		c9.52,1.74,19.14,3.19,28.81,3.7c22.53,1.17,47.1-4.37,67.7-13.02c24.62-10.33,50.43-16.43,77.2-17.27
		C534.71,270.2,551.84,271.85,568.33,276.21z"/>
	<g>
		<text transform="matrix(1 0 0 1 576.2531 303.5688)" class="st1 st4 st5">Loft - Coveñas</text>
	</g>
	<g>
		<g>
			<path class="st1" d="M372.77,176.8v-5.66l30.41-16.85l2.74-1.1c1.28,0,1.92,0.82,1.92,2.45l-1.7,23.47
				c-1.14,18.55-1.71,30.01-1.71,34.38c0,10.28,1.36,18.81,4.08,25.58c2.72,6.78,9.07,10.16,19.05,10.16c3.18,0,6.47-0.52,9.87-1.57
				c3.4-1.04,7.35-2.64,11.84-4.77c4.49-2.14,8.01-3.84,10.55-5.12c0-6.8,0.14-11.23,0.41-13.32l0.82-27.86
				c0.27-8.43,0-14.38-0.82-17.87c-0.82-3.49-2.39-5.73-4.71-6.73c-2.32-1-6.16-1.58-11.53-1.77l-0.27-5.25l36.43-8.53
				c-0.46,8.19-0.93,15.99-1.43,23.4c-0.5,7.41-0.96,15.35-1.36,23.81c-0.41,8.46-0.61,14.74-0.61,18.83
				c0,13.28,0.86,22.56,2.59,27.83c4.73-0.18,9.82-1.27,15.28-3.27v6.14c-10.31,2.82-20.77,6.19-31.35,10.1
				c-1.56-5.09-2.8-11.55-3.71-19.37c-22.24,11.37-37.68,17.05-46.3,17.05c-5.81,0-11.62-2.77-17.43-8.31
				c-5.81-5.54-8.44-16.25-7.9-32.15l1.09-30.65c0.18-5.45-0.02-9.6-0.61-12.46c-0.59-2.86-2.34-4.29-5.25-4.29
				C381.5,173.11,378.05,174.34,372.77,176.8z"/>
			<path class="st1" d="M531.58,178.84l-16.78,7.51c-0.73-2.91-1.09-5.05-1.09-6.41c0-4.64,2.84-8.94,8.53-12.89
				c5.68-3.96,12.09-7.16,19.24-9.62c7.14-2.46,12.12-3.69,14.94-3.69c2.46,0,5.5,1.09,9.14,3.28c3.64,2.18,6.55,4.37,8.73,6.55
				c1.91,1.82,3.39,3.61,4.43,5.39c1.04,1.77,1.98,4.57,2.8,8.39c0.82,3.82,1.23,8.69,1.23,14.6c0,1.73-0.23,7.82-0.68,18.28
				l-0.55,10.23c-0.36,4.91-0.55,8.82-0.55,11.73c0,3.73,0.5,7.73,1.5,12.01c0.91,4.37,2.96,6.55,6.14,6.55
				c3.55,0,8.28-1.32,14.19-3.96v5.59l-20.05,8.05c-4.01,1.37-6.28,2.05-6.82,2.05c-2.09,0-4.16-1.39-6.21-4.16
				c-2.04-2.77-3.7-6.07-4.98-9.89c-16.83,9.37-29.74,14.05-38.75,14.05c-5.55,0-9.74-1.62-12.55-4.84
				c-2.82-3.23-4.23-8.07-4.23-14.53c0-6.19,0.75-10.78,2.25-13.78c1.5-3,3.93-5.37,7.3-7.1c6.82-3.45,14.05-6.02,21.69-7.71
				c7.64-1.68,15.64-3.12,24.01-4.3l0.68-16.78v-4.5c0-7.73-2.2-13.85-6.62-18.35c-4.41-4.5-9.58-6.76-15.49-6.76
				c-2.82,0-5.66,0.8-8.53,2.39c-2.86,1.59-4.3,3.84-4.3,6.75C530.22,174.43,530.67,176.39,531.58,178.84z M563.92,243.38
				c-0.27-3,0-11.55,0.82-25.65c-11.96-0.82-21.58,0.64-28.83,4.37c-7.25,3.73-10.87,8.41-10.87,14.05c0,4.09,1.11,7.96,3.33,11.6
				c2.22,3.64,5.28,5.46,9.18,5.46C541.89,253.2,550.68,249.93,563.92,243.38z"/>
			<path class="st1" d="M608.39,260.98l-1.91-3.82c8.81-8.55,18.03-18.39,27.66-29.54c9.63-11.14,18.42-21.88,26.36-32.2
				c7.95-10.32,15.51-20.4,22.68-30.22h-32.15c-10.71-0.18-19.41,0.89-26.08,3.21c-6.68,2.32-10.97,6.48-12.88,12.48h-5.32
				c2.91-5.73,5-10.66,6.28-14.8c1.27-4.14,1.87-8.16,1.77-12.07c2.63,1.36,4.52,2.25,5.65,2.66c1.14,0.41,3.25,0.82,6.34,1.23
				c3.09,0.41,6.26,0.66,9.53,0.75c3.27,0.09,9.13,0.14,17.58,0.14l32.02,0.27c3.99-0.09,7.77-0.16,11.31-0.2
				c3.54-0.05,8.63-0.07,15.26-0.07c-4,5.55-7.18,9.73-9.53,12.55l-21.39,25.65l-16.75,19.65c-1.55,1.55-6.45,7.46-14.71,17.74
				c-8.27,10.28-12.76,16.19-13.49,17.74c7.63,0.73,16.34,1.09,26.15,1.09c8.81,0,16.05-0.5,21.72-1.5c5.68-1,10.67-3.32,14.99-6.96
				c4.31-3.64,7.42-9.01,9.33-16.1h4.37c-0.91,8.19-3.69,19.06-8.32,32.61c-1.55,0-2.5-0.18-2.87-0.55
				c-5.1-0.91-11.32-1.36-18.69-1.36l-49.8,0.27C622.31,259.61,613.94,260.06,608.39,260.98z"/>
			<path class="st1" d="M718.91,176.8v-5.66l30.41-16.85l2.74-1.1c1.28,0,1.92,0.82,1.92,2.45l-1.71,23.47
				c-1.14,18.55-1.71,30.01-1.71,34.38c0,10.28,1.36,18.81,4.08,25.58c2.72,6.78,9.07,10.16,19.05,10.16c3.18,0,6.46-0.52,9.87-1.57
				c3.4-1.04,7.35-2.64,11.84-4.77c4.49-2.14,8.01-3.84,10.55-5.12c0-6.8,0.14-11.23,0.41-13.32l0.82-27.86
				c0.27-8.43,0-14.38-0.82-17.87c-0.82-3.49-2.39-5.73-4.7-6.73c-2.32-1-6.16-1.58-11.53-1.77l-0.27-5.25l36.43-8.53
				c-0.46,8.19-0.93,15.99-1.43,23.4c-0.5,7.41-0.95,15.35-1.36,23.81c-0.41,8.46-0.62,14.74-0.62,18.83
				c0,13.28,0.86,22.56,2.59,27.83c4.73-0.18,9.82-1.27,15.28-3.27v6.14c-10.32,2.82-20.77,6.19-31.35,10.1
				c-1.56-5.09-2.8-11.55-3.71-19.37c-22.24,11.37-37.68,17.05-46.3,17.05c-5.81,0-11.62-2.77-17.43-8.31
				c-5.81-5.54-8.44-16.25-7.9-32.15l1.09-30.65c0.18-5.45-0.02-9.6-0.62-12.46s-2.34-4.29-5.25-4.29
				C727.64,173.11,724.18,174.34,718.91,176.8z"/>
			<path class="st1" d="M847.84,259.88v-4.23c6.82-1.18,11.64-3.23,14.46-6.13c2.82-2.91,4.59-7.36,5.32-13.36
				c0.45-3.09,0.95-10.2,1.5-21.33c0.55-11.13,1.05-23.88,1.5-38.24c0.46-14.36,0.68-27.26,0.68-38.71
				c0-23.99-1.24-37.67-3.71-41.03c-1.56-2.27-4.68-3.41-9.34-3.41c-1.1,0-1.97,0.05-2.61,0.14c-0.64,0.09-1.24,0.18-1.79,0.27
				c-0.55,0.09-1.14,0.18-1.78,0.27v-4.3c17.43-7.3,29.7-13.46,36.82-18.49H893c-2.82,10.73-4.59,30.18-5.32,58.35l-1.09,65.57
				c0,30.72,0.68,48.13,2.05,52.22c0.82,2.36,3.55,4.16,8.19,5.39c4.64,1.23,8.78,2.02,12.41,2.39v5.18
				c-17.83-1.27-29.84-1.91-36.02-1.91C864.94,258.52,856.48,258.97,847.84,259.88z"/>
		</g>
	</g>
</g>
</svg>
