<svg width="100%" height="100%" id="svg" viewBox="0 0 1440 590" xmlns="http://www.w3.org/2000/svg" class="transition duration-300 ease-in-out delay-150"><defs><linearGradient id="gradient" x1="0%" y1="50%" x2="100%" y2="50%"><stop offset="5%" stop-color="#23a5d9"></stop><stop offset="95%" stop-color="#7bdcb5"></stop></linearGradient></defs><path d="M 0,600 C 0,600 0,120 0,120 C 70.55128205128204,142.6948717948718 141.1025641025641,165.3897435897436 232,153 C 322.8974358974359,140.6102564102564 434.14102564102564,93.13589743589742 520,99 C 605.8589743589744,104.86410256410258 666.3333333333334,164.0666666666667 745,162 C 823.6666666666666,159.9333333333333 920.5256410256411,96.5974358974359 995,80 C 1069.474358974359,63.40256410256411 1121.5641025641025,93.54358974358973 1192,108 C 1262.4358974358975,122.45641025641027 1351.2179487179487,121.22820512820513 1440,120 C 1440,120 1440,600 1440,600 Z" stroke="none" stroke-width="0" fill="url(#gradient)" fill-opacity="0.265" class="transition-all duration-300 ease-in-out delay-150 path-0"></path><defs><linearGradient id="gradient" x1="0%" y1="50%" x2="100%" y2="50%"><stop offset="5%" stop-color="#23a5d9"></stop><stop offset="95%" stop-color="#7bdcb5"></stop></linearGradient></defs><path d="M 0,600 C 0,600 0,240 0,240 C 98.3923076923077,232.9897435897436 196.7846153846154,225.9794871794872 266,233 C 335.2153846153846,240.0205128205128 375.2538461538461,261.07179487179485 454,254 C 532.7461538461539,246.92820512820515 650.2000000000002,211.73333333333332 742,217 C 833.7999999999998,222.26666666666668 899.946153846154,267.99487179487176 980,275 C 1060.053846153846,282.00512820512824 1154.0153846153846,250.28717948717951 1233,238 C 1311.9846153846154,225.71282051282049 1375.9923076923078,232.85641025641024 1440,240 C 1440,240 1440,600 1440,600 Z" stroke="none" stroke-width="0" fill="url(#gradient)" fill-opacity="0.4" class="transition-all duration-300 ease-in-out delay-150 path-1"></path><defs><linearGradient id="gradient" x1="0%" y1="50%" x2="100%" y2="50%"><stop offset="5%" stop-color="#23a5d9"></stop><stop offset="95%" stop-color="#7bdcb5"></stop></linearGradient></defs><path d="M 0,600 C 0,600 0,360 0,360 C 100.38974358974357,348.98717948717945 200.77948717948715,337.97435897435895 267,334 C 333.22051282051285,330.02564102564105 365.2717948717949,333.08974358974353 440,339 C 514.7282051282051,344.91025641025647 632.1333333333333,353.66666666666674 721,361 C 809.8666666666667,368.33333333333326 870.1948717948719,374.2435897435897 945,376 C 1019.8051282051281,377.7564102564103 1109.0871794871794,375.3589743589744 1194,372 C 1278.9128205128206,368.6410256410256 1359.4564102564104,364.3205128205128 1440,360 C 1440,360 1440,600 1440,600 Z" stroke="none" stroke-width="0" fill="url(#gradient)" fill-opacity="0.53" class="transition-all duration-300 ease-in-out delay-150 path-2"></path><defs><linearGradient id="gradient" x1="0%" y1="50%" x2="100%" y2="50%"><stop offset="5%" stop-color="#23a5d9"></stop><stop offset="95%" stop-color="#7bdcb5"></stop></linearGradient></defs><path d="M 0,600 C 0,600 0,480 0,480 C 87.35897435897436,483.62051282051283 174.71794871794873,487.24102564102566 256,479 C 337.28205128205127,470.75897435897434 412.48717948717945,450.65641025641025 495,457 C 577.5128205128206,463.34358974358975 667.3333333333333,496.13333333333327 742,497 C 816.6666666666667,497.86666666666673 876.1794871794873,466.81025641025644 941,459 C 1005.8205128205127,451.18974358974356 1075.948717948718,466.6256410256411 1160,474 C 1244.051282051282,481.3743589743589 1342.025641025641,480.6871794871795 1440,480 C 1440,480 1440,600 1440,600 Z" stroke="none" stroke-width="0" fill="url(#gradient)" fill-opacity="1" class="transition-all duration-300 ease-in-out delay-150 path-3"></path></svg>